<svg xmlns="http://www.w3.org/2000/svg" viewBox="0 0 900 1100" role="img" aria-labelledby="t d"><title id="t">Arzu Parçası</title><desc id="d">Karanlık yüzey üzerinde mor ve kor ışıklı kırık kristal form.</desc><defs><linearGradient id="bg" x1="0" y1="0" x2="1" y2="1"><stop stop-color="#140c1c"/><stop offset="1" stop-color="#060508"/></linearGradient><linearGradient id="crystal" x1="0" y1="0" x2="1" y2="1"><stop stop-color="#f0e9ff" stop-opacity=".8"/><stop offset=".35" stop-color="#a689ff" stop-opacity=".5"/><stop offset="1" stop-color="#ff6b5d" stop-opacity=".7"/></linearGradient><filter id="glow"><feGaussianBlur stdDeviation="16" result="b"/><feMerge><feMergeNode in="b"/><feMergeNode in="SourceGraphic"/></feMerge></filter></defs><rect width="900" height="1100" fill="url(#bg)"/><g opacity=".18" stroke="#c8b7ff"><path d="M120 170 780 930"/><path d="M160 930 740 150"/><circle cx="450" cy="550" r="320" fill="none"/></g><g filter="url(#glow)"><path d="M450 120 690 390 610 830 450 990 278 820 206 410Z" fill="#0b0810" stroke="url(#crystal)" stroke-width="8"/><path d="M450 120 450 990M206 410 690 390M278 820 610 830" stroke="#efe8ff" stroke-opacity=".32" stroke-width="3"/><path d="M450 120 610 830 206 410Z" fill="#a689ff" fill-opacity=".09"/><path d="M450 990 206 410 690 390Z" fill="#ff6b5d" fill-opacity=".08"/></g><circle cx="450" cy="550" r="55" fill="#0a0710" stroke="#fff" stroke-opacity=".3"/><circle cx="450" cy="550" r="18" fill="#ff8d7d" filter="url(#glow)"/></svg>